<mxfile host="app.diagrams.net" modified="2023-01-23T06:27:55.434Z" agent="5.0 (Windows NT 10.0; Win64; x64) AppleWebKit/537.36 (KHTML, like Gecko) Chrome/109.0.0.0 Safari/537.36" version="20.8.5" etag="MK4dzHMl2Dqh2K11Ktk2" type="github">
  <diagram id="beI70VqmgYFiX3Y--h8N" name="Page-1">
    <mxGraphModel dx="1400" dy="1832" grid="1" gridSize="10" guides="1" tooltips="1" connect="1" arrows="1" fold="1" page="1" pageScale="1" pageWidth="850" pageHeight="1100" math="0" shadow="0">
      <root>
        <mxCell id="0" />
        <mxCell id="1" parent="0" />
        <mxCell id="KpHtsdNiOhYFoA-XpZPj-2" value="" style="rounded=0;whiteSpace=wrap;html=1;fillColor=#dae8fc;strokeColor=#6c8ebf;" vertex="1" parent="1">
          <mxGeometry x="330" y="-40" width="1110" height="580" as="geometry" />
        </mxCell>
        <mxCell id="KpHtsdNiOhYFoA-XpZPj-15" style="edgeStyle=orthogonalEdgeStyle;rounded=0;orthogonalLoop=1;jettySize=auto;html=1;exitX=1;exitY=0.5;exitDx=0;exitDy=0;entryX=0;entryY=0.5;entryDx=0;entryDy=0;fontSize=21;" edge="1" parent="1" source="KpHtsdNiOhYFoA-XpZPj-7" target="KpHtsdNiOhYFoA-XpZPj-14">
          <mxGeometry relative="1" as="geometry" />
        </mxCell>
        <mxCell id="KpHtsdNiOhYFoA-XpZPj-7" value="&lt;br&gt;Gateway" style="rounded=0;whiteSpace=wrap;html=1;fontSize=21;" vertex="1" parent="1">
          <mxGeometry x="660" y="190" width="170" height="90" as="geometry" />
        </mxCell>
        <mxCell id="KpHtsdNiOhYFoA-XpZPj-3" value="Node" style="text;html=1;strokeColor=none;fillColor=none;align=center;verticalAlign=middle;whiteSpace=wrap;rounded=0;fontSize=21;" vertex="1" parent="1">
          <mxGeometry x="870" y="-40" width="60" height="30" as="geometry" />
        </mxCell>
        <mxCell id="KpHtsdNiOhYFoA-XpZPj-11" style="edgeStyle=orthogonalEdgeStyle;rounded=0;orthogonalLoop=1;jettySize=auto;html=1;exitX=1;exitY=0.5;exitDx=0;exitDy=0;entryX=-0.003;entryY=0.611;entryDx=0;entryDy=0;entryPerimeter=0;fontSize=21;" edge="1" parent="1" source="KpHtsdNiOhYFoA-XpZPj-4" target="KpHtsdNiOhYFoA-XpZPj-9">
          <mxGeometry relative="1" as="geometry" />
        </mxCell>
        <mxCell id="KpHtsdNiOhYFoA-XpZPj-4" value="Ingress Service" style="rounded=0;whiteSpace=wrap;html=1;fontSize=21;fillColor=#fff2cc;strokeColor=#d6b656;" vertex="1" parent="1">
          <mxGeometry x="280" y="180" width="90" height="130" as="geometry" />
        </mxCell>
        <mxCell id="KpHtsdNiOhYFoA-XpZPj-6" value="Deployment" style="shape=partialRectangle;whiteSpace=wrap;html=1;left=0;right=0;fillColor=#e1d5e7;fontSize=21;strokeColor=#9673a6;" vertex="1" parent="1">
          <mxGeometry x="660" y="190" width="170" height="30" as="geometry" />
        </mxCell>
        <mxCell id="KpHtsdNiOhYFoA-XpZPj-9" value="ClusterIP Service" style="rounded=0;whiteSpace=wrap;html=1;fontSize=21;fillColor=#fff2cc;strokeColor=#d6b656;" vertex="1" parent="1">
          <mxGeometry x="540" y="190" width="120" height="90" as="geometry" />
        </mxCell>
        <mxCell id="KpHtsdNiOhYFoA-XpZPj-12" value="&lt;br&gt;CADE-BH API" style="rounded=0;whiteSpace=wrap;html=1;fontSize=21;" vertex="1" parent="1">
          <mxGeometry x="1160" y="190" width="170" height="90" as="geometry" />
        </mxCell>
        <mxCell id="KpHtsdNiOhYFoA-XpZPj-13" value="Deployment" style="shape=partialRectangle;whiteSpace=wrap;html=1;left=0;right=0;fillColor=#e1d5e7;fontSize=21;strokeColor=#9673a6;" vertex="1" parent="1">
          <mxGeometry x="1160" y="190" width="170" height="30" as="geometry" />
        </mxCell>
        <mxCell id="KpHtsdNiOhYFoA-XpZPj-14" value="ClusterIP Service" style="rounded=0;whiteSpace=wrap;html=1;fontSize=21;fillColor=#fff2cc;strokeColor=#d6b656;" vertex="1" parent="1">
          <mxGeometry x="1040" y="190" width="120" height="90" as="geometry" />
        </mxCell>
        <mxCell id="KpHtsdNiOhYFoA-XpZPj-16" value="" style="endArrow=classic;html=1;rounded=0;fontSize=21;" edge="1" parent="1">
          <mxGeometry width="50" height="50" relative="1" as="geometry">
            <mxPoint x="199" y="240" as="sourcePoint" />
            <mxPoint x="279" y="240" as="targetPoint" />
          </mxGeometry>
        </mxCell>
        <mxCell id="KpHtsdNiOhYFoA-XpZPj-17" value="Traffic" style="text;html=1;align=center;verticalAlign=middle;resizable=0;points=[];autosize=1;strokeColor=none;fillColor=none;fontSize=21;" vertex="1" parent="1">
          <mxGeometry x="110" y="220" width="80" height="40" as="geometry" />
        </mxCell>
        <mxCell id="KpHtsdNiOhYFoA-XpZPj-18" value="&lt;br&gt;Discovery Service" style="rounded=0;whiteSpace=wrap;html=1;fontSize=21;" vertex="1" parent="1">
          <mxGeometry x="1160" y="20" width="170" height="90" as="geometry" />
        </mxCell>
        <mxCell id="KpHtsdNiOhYFoA-XpZPj-19" value="Deployment" style="shape=partialRectangle;whiteSpace=wrap;html=1;left=0;right=0;fillColor=#e1d5e7;fontSize=21;strokeColor=#9673a6;" vertex="1" parent="1">
          <mxGeometry x="1160" y="20" width="170" height="30" as="geometry" />
        </mxCell>
      </root>
    </mxGraphModel>
  </diagram>
</mxfile>
